# xmcd
#
# Track frame offsets: 
#        150
#        19121
#        37881
#        51885
#        68067
#        82294
#        100072
#        118455
#        134815
#        154440
#        171826
#        189915
#
# Disc length: 2798 seconds
#
# Revision: 0
# Processed by: cddbd v1.5.2PL0 Copyright (c) Steve Scherf et al.
# Submitted via: ExactAudioCopy v0.99pb5
#
DISCID=ab0aec0c
DTITLE=Mack 10 - Soft White
DYEAR=2009
DGENRE=Rap
TTITLE0=Big Balla feat. Glasses Malone and Birdman
TTITLE1=So Sharp feat. Rick Ross, Lil' Wayne and Jazze Pha
TTITLE2=Hoo-Bangin' II feat. Glasses Malone
TTITLE3=Mirror, Mirror
TTITLE4=Hood Famous feat. J. Holiday
TTITLE5=It's Your Life feat. Anthony Hamilton
TTITLE6=Street Shit feat. Glasses Malone and Butch Cassidy
TTITLE7=Clack Clack feat. Akon and Red Cafe
TTITLE8=Pushin'
TTITLE9=Tonight
TTITLE10=Dedication (To The Pen)
TTITLE11=Dope Boy (Bonus Track)
EXTD=
EXTT0=
EXTT1=
EXTT2=
EXTT3=
EXTT4=
EXTT5=
EXTT6=
EXTT7=
EXTT8=
EXTT9=
EXTT10=
EXTT11=
PLAYORDER=
